<?xml version="1.0" standalone="no"?>
<!DOCTYPE svg PUBLIC "-//W3C//DTD SVG 20010904//EN"
 "http://www.w3.org/TR/2001/REC-SVG-20010904/DTD/svg10.dtd">
<svg version="1.0" xmlns="http://www.w3.org/2000/svg"
 width="626.000000pt" height="626.000000pt" viewBox="0 0 626.000000 626.000000"
 preserveAspectRatio="xMidYMid meet">

<g transform="translate(0.000000,626.000000) scale(0.100000,-0.100000)"
fill="#000000" stroke="none">
<path d="M2233 6242 c-107 -38 -182 -111 -224 -217 l-24 -60 -3 -1052 c-1
-579 -4 -1053 -7 -1053 -2 0 -34 23 -70 50 -220 166 -474 260 -630 231 -87
-16 -143 -47 -215 -120 -138 -140 -187 -292 -134 -416 7 -16 46 -66 86 -110
40 -44 116 -130 168 -190 52 -61 100 -114 106 -120 6 -5 93 -104 194 -220 101
-115 188 -214 194 -220 6 -5 40 -44 76 -85 35 -41 102 -117 149 -168 76 -83
87 -102 123 -195 75 -194 126 -345 121 -351 -4 -3 -53 -6 -109 -6 l-103 0 -3
-96 -3 -96 -105 -32 c-141 -42 -229 -96 -251 -154 -28 -72 83 -156 276 -207
l80 -22 5 -99 5 -99 165 -5 165 -5 3 -563 2 -562 1260 0 1260 0 0 565 0 564
93 3 92 3 5 94 c6 107 -1 99 114 131 177 48 284 132 257 203 -5 13 -26 38 -47
57 -57 50 -117 74 -311 126 -9 2 -13 31 -13 99 l0 95 -75 0 -75 0 0 1779 c0
1153 -4 1797 -10 1831 -23 122 -96 220 -198 268 -48 23 -71 27 -147 27 -114 0
-171 -21 -242 -88 -29 -27 -65 -75 -80 -106 l-28 -56 -5 -410 -5 -410 -710 0
-710 0 -5 615 -5 615 -25 49 c-63 123 -172 196 -303 203 -53 3 -86 -1 -124
-15z m2647 -4451 c0 -47 -1 -49 -46 -72 -35 -18 -54 -37 -77 -77 -59 -106 -27
-228 76 -282 46 -24 47 -26 47 -72 l0 -48 -1420 0 -1420 0 0 48 c0 46 1 48 47
72 67 35 108 103 108 179 0 76 -45 150 -111 181 -43 21 -44 23 -44 71 l0 49
1420 0 1420 0 0 -49z"/>
<path d="M2609 1726 c-251 -88 -267 -256 -34 -362 86 -40 184 -44 245 -11 156
85 143 313 -22 382 -52 21 -112 19 -189 -9z"/>
<path d="M3376 1730 c-117 -59 -157 -178 -98 -291 22 -43 38 -59 81 -81 187
-98 383 93 285 277 -28 54 -40 65 -101 95 -53 25 -116 25 -167 0z"/>
<path d="M4115 1731 c-204 -95 -142 -401 81 -401 107 0 249 69 294 143 57 93
-15 195 -179 253 -80 28 -142 30 -196 5z"/>
</g>
</svg>
