<?xml version="1.0" standalone="no"?>
<!DOCTYPE svg PUBLIC "-//W3C//DTD SVG 20010904//EN"
 "http://www.w3.org/TR/2001/REC-SVG-20010904/DTD/svg10.dtd">
<svg version="1.0" xmlns="http://www.w3.org/2000/svg"
 width="359.000000pt" height="148.000000pt" viewBox="0 0 359.000000 148.000000"
 preserveAspectRatio="xMidYMid meet">

<g transform="translate(0.000000,148.000000) scale(0.100000,-0.100000)"
fill="#000000" stroke="none">
<path d="M827 1100 c-145 -37 -253 -147 -264 -269 -9 -96 35 -189 115 -244
l39 -27 -24 -88 c-12 -48 -23 -90 -23 -94 0 -20 38 -3 123 54 89 60 95 63 173
70 231 20 377 154 361 329 -9 105 -74 185 -196 242 -56 27 -77 31 -165 33 -56
2 -118 -1 -139 -6z"/>
<path d="M1740 1064 c-19 -8 -42 -22 -51 -30 -16 -14 -18 -14 -24 5 -5 18 -15
21 -56 21 l-49 0 0 -345 0 -345 70 0 70 0 0 93 0 92 52 -4 c71 -5 122 13 173
60 56 52 80 117 79 219 0 123 -35 198 -108 231 -49 22 -109 24 -156 3z m82
-105 c28 -15 48 -69 48 -131 0 -116 -35 -168 -120 -176 l-50 -5 0 156 c0 140
2 156 18 160 33 9 83 7 104 -4z"/>
<path d="M2195 1062 c-89 -30 -90 -32 -71 -84 l18 -45 41 14 c22 8 63 15 89
15 54 2 82 -17 93 -63 l7 -26 -84 -5 c-133 -7 -195 -50 -205 -141 -7 -57 10
-106 47 -142 24 -23 41 -30 89 -33 49 -4 67 0 111 22 28 14 53 26 55 26 1 0 5
-9 8 -20 4 -16 14 -20 51 -20 l46 0 0 183 c0 100 -5 198 -10 217 -12 43 -62
93 -109 109 -47 15 -117 13 -176 -7z m175 -327 c0 -39 -4 -46 -28 -59 -15 -8
-44 -17 -64 -21 -29 -6 -40 -3 -57 14 -28 28 -27 56 4 86 20 21 34 25 85 25
l60 0 0 -45z"/>
<path d="M2610 1063 c-30 -8 -56 -16 -57 -17 -1 -1 38 -112 87 -245 l89 -244
-21 -31 c-12 -17 -36 -47 -55 -66 l-33 -36 39 -38 c33 -32 42 -36 59 -27 31
16 86 85 120 149 22 42 202 520 202 537 0 8 -124 35 -130 28 -4 -4 -28 -84
-55 -178 -26 -93 -50 -176 -54 -183 -4 -6 -31 73 -61 178 -30 104 -59 190 -65
189 -5 0 -35 -8 -65 -16z"/>
</g>
</svg>
